<svg width="14" height="15" viewBox="0 0 14 15" fill="none" xmlns="http://www.w3.org/2000/svg">
<path d="M13.75 1.5V11.25C13.75 11.4489 13.671 11.6397 13.5303 11.7803C13.3897 11.921 13.1989 12 13 12C12.8011 12 12.6103 11.921 12.4697 11.7803C12.329 11.6397 12.25 11.4489 12.25 11.25V3.31031L1.53061 14.0306C1.38988 14.1714 1.19901 14.2504 0.99999 14.2504C0.800967 14.2504 0.610095 14.1714 0.469365 14.0306C0.328634 13.8899 0.249573 13.699 0.249573 13.5C0.249573 13.301 0.328634 13.1101 0.469365 12.9694L11.1897 2.25H3.24999C3.05108 2.25 2.86031 2.17098 2.71966 2.03033C2.57901 1.88968 2.49999 1.69891 2.49999 1.5C2.49999 1.30109 2.57901 1.11032 2.71966 0.96967C2.86031 0.829018 3.05108 0.75 3.24999 0.75H13C13.1989 0.75 13.3897 0.829018 13.5303 0.96967C13.671 1.11032 13.75 1.30109 13.75 1.5Z" fill="#8E8E93"/>
</svg>
