<svg width="113" height="50" viewBox="0 0 113 50" fill="none" xmlns="http://www.w3.org/2000/svg">
<path d="M83.6055 0.00585938C83.5996 0.122689 83.5878 0.23757 83.5878 0.3544C83.5878 6.84817 83.5976 13.34 83.5839 19.8338C83.578 22.4177 84.1589 24.8263 85.5504 27.0305C89.464 33.2263 97.5795 35.2358 103.856 31.4038C108.003 28.8725 110.264 25.1067 110.325 20.1979C110.37 16.6385 110.333 13.0771 110.337 9.51773C110.337 9.38143 110.294 9.23539 110.4 9.05625C110.951 10.1467 111.481 11.2098 112.025 12.2652C112.343 12.8824 112.602 13.5308 113 14.1052V21.1111C112.918 21.6836 112.841 22.258 112.751 22.8305C111.669 29.5715 105.846 35.0878 99.0181 35.8414C94.6218 36.3262 90.5964 35.3994 87.1049 32.6247C83.0971 29.4391 80.9441 25.3053 80.9225 20.1745C80.8931 13.5678 80.9147 6.95916 80.9166 0.350507C80.9166 0.237572 80.9421 0.12269 80.9578 0.00975452H83.6055V0.00585938Z" fill="#1C1C1E"/>
<path d="M28.1666 0.00589254C28.2549 0.819805 28.1784 1.63567 28.2078 2.44958C28.2137 2.60924 28.1469 2.65598 28.0037 2.64819C27.9016 2.64235 27.7976 2.64819 27.6955 2.64819C23.7683 2.64819 19.841 2.65598 15.9138 2.6365C15.4938 2.63456 15.4212 2.76112 15.4212 3.14471C15.4329 11.3734 15.4251 19.6021 15.4408 27.8288C15.4408 28.2572 15.3309 28.3799 14.9089 28.3507C14.3378 28.3137 13.7608 28.3195 13.1896 28.3507C12.8462 28.3682 12.7775 28.2533 12.7814 27.934C12.7971 26.2127 12.7892 24.4914 12.7892 22.7701C12.7892 16.2199 12.7853 9.66964 12.7991 3.1194C12.7991 2.73192 12.7107 2.63651 12.3182 2.63845C8.37722 2.65403 4.43427 2.64819 0.493273 2.64819C0.332336 2.64819 0.169436 2.63845 0.00849914 2.63456C0.00849914 1.86154 0.022239 1.08657 0.000649873 0.313544C-0.00720071 0.0506776 0.0536414 -0.00189586 0.316636 5.13012e-05C3.90632 0.0117343 7.49599 0.00783863 11.0857 0.00783863H28.1666V0.00589254Z" fill="#1C1C1E"/>
<path d="M44.4487 25.2216H44.9885C48.1954 25.2216 51.4024 25.2255 54.6113 25.2138C54.9194 25.2138 55.0765 25.3014 55.208 25.5838C55.5573 26.3315 55.9498 27.0617 56.3522 27.8522C56.1363 27.8522 55.9812 27.8522 55.8242 27.8522C51.7341 27.8522 47.6439 27.8561 43.5538 27.8444C43.224 27.8444 43.0376 27.9204 42.8766 28.2358C41.5185 30.8839 40.1348 33.5185 38.761 36.1588C38.6785 36.3165 38.6197 36.4606 38.3881 36.4567C37.4911 36.445 36.5942 36.4528 35.6168 36.4528C41.9287 24.2928 48.2131 12.1854 54.5269 0.0195312C60.8427 12.1756 67.1291 24.2772 73.4527 36.4509C72.4596 36.4509 71.5293 36.4509 70.5971 36.4509C70.3969 36.4509 70.3772 36.2815 70.3125 36.1608C69.3233 34.274 68.3361 32.3872 67.3548 30.4965C65.1154 26.1855 62.878 21.8744 60.6406 17.5634C58.7113 13.8463 56.782 10.1311 54.8527 6.414C54.7526 6.22123 54.6506 6.03041 54.523 5.78507C51.1551 12.2808 47.8147 18.722 44.4448 25.2197L44.4487 25.2216Z" fill="#1C1C1E"/>
<path d="M70.6735 46.6463C71.4958 45.4255 72.277 44.263 73.0601 43.1005C73.2308 42.8455 73.7058 42.7033 73.9747 42.8104C74.116 42.8669 74.0748 42.974 74.0748 43.0655C74.0767 45.2385 74.0708 47.4116 74.0826 49.5846C74.0846 49.9896 73.8078 49.8163 73.6292 49.8455C73.3957 49.8844 73.2662 49.8416 73.2681 49.5378C73.2858 47.8905 73.2779 46.2413 73.274 44.594C73.274 44.4869 73.3211 44.3681 73.2132 44.2318C72.3633 45.4683 71.5253 46.6872 70.6598 47.949C69.8021 46.7008 68.968 45.4897 68.1319 44.2727C67.9925 44.3623 68.0573 44.4889 68.0573 44.5901C68.0514 46.2238 68.0436 47.8574 68.0632 49.4911C68.0671 49.8299 67.9317 49.8533 67.655 49.8591C67.3606 49.865 67.2585 49.8085 67.2624 49.4872C67.2801 47.4154 67.2683 45.3456 67.2781 43.2738C67.2781 43.122 67.1564 42.8552 67.3861 42.8299C67.6628 42.7987 68.0004 42.6663 68.2241 43.0071C68.7952 43.8716 69.3782 44.7303 69.9571 45.591C70.1848 45.9298 70.4144 46.2647 70.6755 46.6483L70.6735 46.6463Z" fill="#1C1C1E"/>
<path d="M46.2053 47.0006C46.4526 46.915 46.6587 46.8566 46.8549 46.7728C47.4398 46.5275 47.8676 46.1283 48.0325 45.5052C48.4152 44.0721 47.4732 42.8863 45.8579 42.8181C44.8314 42.7753 43.801 42.8104 42.7726 42.7987C42.5508 42.7967 42.4684 42.8532 42.4684 43.0888C42.4782 45.2462 42.4821 47.4037 42.4664 49.5612C42.4645 49.9486 42.7059 49.8357 42.9002 49.8454C43.0984 49.8552 43.2986 49.9039 43.2849 49.5592C43.2554 48.8602 43.2927 48.1611 43.2692 47.4621C43.2594 47.1623 43.3653 47.0922 43.644 47.1058C44.0994 47.1253 44.5567 47.1272 45.01 47.1058C45.2495 47.0941 45.379 47.1876 45.5125 47.3687C46.0031 48.0404 46.5115 48.7005 47.0119 49.3664C47.4143 49.9019 47.6125 49.9662 48.3014 49.7734C47.6066 48.8524 46.9138 47.9372 46.2072 47.0006H46.2053ZM44.013 46.399C43.277 46.4165 43.2751 46.4029 43.277 45.6766V44.9775C43.277 44.5842 43.277 44.1909 43.277 43.7976C43.277 43.6613 43.2692 43.5269 43.4694 43.5327C44.3329 43.56 45.2043 43.4568 46.062 43.5951C46.8314 43.7197 47.2671 44.1773 47.3044 44.849C47.3417 45.5325 46.9354 46.0757 46.2033 46.2899C45.485 46.5002 44.7451 46.3814 44.013 46.397V46.399Z" fill="#1C1C1E"/>
<path d="M77.0973 46.2841C77.0973 45.2482 77.1052 44.2123 77.0914 43.1764C77.0875 42.9116 77.1326 42.7928 77.4447 42.7967C78.9304 42.8142 80.4161 42.8142 81.8999 42.7967C82.212 42.7928 82.2512 42.9097 82.263 43.1745C82.2767 43.4802 82.157 43.5328 81.8822 43.5289C80.6909 43.5152 79.4996 43.5328 78.3083 43.5152C78.0158 43.5113 77.8922 43.562 77.9098 43.8871C77.9393 44.4401 77.9412 44.997 77.9098 45.55C77.8902 45.8966 78.0197 45.9589 78.3357 45.9531C79.3504 45.9336 80.3651 45.9531 81.3798 45.9433C81.6389 45.9414 81.8155 45.9316 81.8077 46.2938C81.7998 46.617 81.6899 46.6696 81.3994 46.6657C80.371 46.6502 79.3406 46.6696 78.3102 46.654C78.0178 46.6502 77.8941 46.6988 77.9079 47.026C77.9354 47.6218 77.9275 48.2215 77.9098 48.8193C77.902 49.0705 77.9844 49.1386 78.2337 49.1367C79.4682 49.125 80.7046 49.1425 81.9391 49.123C82.2414 49.1192 82.3022 49.2185 82.3022 49.4911C82.3022 49.7637 82.2434 49.861 81.9431 49.8571C80.4436 49.8396 78.9422 49.8396 77.4427 49.8571C77.1307 49.861 77.0836 49.7481 77.0875 49.4794C77.0993 48.4143 77.0934 47.3492 77.0934 46.2841H77.0973Z" fill="#1C1C1E"/>
<path d="M34.6492 46.3016C34.6492 45.2657 34.659 44.2318 34.6433 43.1959C34.6394 42.9077 34.6943 42.7928 35.0201 42.7967C36.4902 42.8143 37.9602 42.8104 39.4302 42.8006C39.6971 42.8006 39.8149 42.8396 39.8168 43.1511C39.8168 43.4685 39.7128 43.5347 39.4145 43.5308C38.2232 43.5152 37.0338 43.5347 35.8425 43.5191C35.5501 43.5152 35.4264 43.5697 35.4421 43.893C35.4696 44.446 35.4716 45.0029 35.4401 45.5539C35.4186 45.9044 35.554 45.9609 35.868 45.955C36.8964 45.9375 37.9268 45.955 38.9552 45.9433C39.2163 45.9414 39.3517 45.9686 39.3478 46.2899C39.3438 46.6054 39.2457 46.6755 38.9435 46.6696C37.8993 46.6521 36.8552 46.6735 35.8131 46.656C35.5226 46.6502 35.4323 46.7319 35.4421 47.0201C35.4617 47.5887 35.4657 48.1573 35.4421 48.7258C35.4284 49.0432 35.5069 49.1503 35.8503 49.1425C37.0554 49.1191 38.2605 49.1464 39.4655 49.125C39.7854 49.1192 39.8424 49.2243 39.8502 49.5164C39.86 49.8338 39.7246 49.8591 39.4655 49.8591C37.9818 49.8493 36.496 49.8474 35.0123 49.861C34.7277 49.863 34.6394 49.7948 34.6433 49.5008C34.6629 48.4376 34.6512 47.3725 34.6512 46.3075L34.6492 46.3016Z" fill="#1C1C1E"/>
<path d="M30.3157 42.8862C29.7171 42.7518 29.1126 42.8336 28.6141 42.8044C28.0586 42.8044 27.6013 42.8141 27.146 42.8005C26.9281 42.7947 26.8379 42.8414 26.8379 43.0848C26.8477 45.2442 26.8536 47.4036 26.8359 49.563C26.8339 49.9505 27.0734 49.8375 27.2677 49.8473C27.4659 49.857 27.67 49.9076 27.6543 49.563C27.6249 48.9516 27.6622 48.3363 27.6386 47.7249C27.6288 47.4347 27.7171 47.3588 28.0056 47.3588C28.7397 47.3608 29.4756 47.4192 30.2058 47.2848C31.35 47.0745 32.1429 46.21 32.1625 45.1371C32.1861 43.9377 31.5423 43.1607 30.3196 42.8862H30.3157ZM29.9683 46.5799C29.2696 46.6948 28.563 46.6189 27.8584 46.6384C27.6347 46.6442 27.6386 46.5137 27.6406 46.358C27.6445 45.9218 27.6406 45.4856 27.6406 45.0475C27.6406 44.6269 27.6406 44.2044 27.6406 43.7819C27.6406 43.6358 27.6524 43.5249 27.8467 43.5307C28.563 43.558 29.2853 43.4606 29.9977 43.5891C30.9162 43.7546 31.3618 44.2589 31.3519 45.0806C31.3441 45.8576 30.8201 46.4378 29.9702 46.578L29.9683 46.5799Z" fill="#1C1C1E"/>
<path d="M59.249 45.1704C59.249 45.885 59.2098 46.6015 59.2589 47.3122C59.3197 48.1592 59.7181 48.8446 60.5758 49.1017C61.4629 49.3665 62.3324 49.31 63.0193 48.5779C63.4609 48.1086 63.5414 47.5128 63.5453 46.9072C63.5551 45.6533 63.559 44.3993 63.5394 43.1453C63.5355 42.8377 63.6473 42.7754 63.9162 42.7987C64.1419 42.8182 64.3676 42.7345 64.3598 43.1317C64.3323 44.4441 64.3716 45.7565 64.3402 47.0688C64.3146 48.1651 63.9378 49.1309 62.8839 49.6332C61.7848 50.1551 60.6563 50.1356 59.6004 49.4755C58.8447 49.0043 58.4934 48.2508 58.4601 47.4057C58.4031 45.9492 58.4345 44.4889 58.4228 43.0324C58.4188 42.6507 58.6995 42.8338 58.8624 42.8104C59.0449 42.7851 59.2412 42.7539 59.2333 43.0694C59.2137 43.7684 59.2275 44.4694 59.2275 45.1704H59.249Z" fill="#1C1C1E"/>
<path d="M50.8449 46.3133C50.8449 45.2482 50.8508 44.1831 50.839 43.118C50.8371 42.8785 50.894 42.7948 51.1511 42.7967C52.6506 42.8084 54.152 42.8123 55.6514 42.7967C55.9635 42.7928 55.9714 42.9369 55.9674 43.1686C55.9635 43.3906 55.9753 43.5464 55.6554 43.5425C54.4503 43.523 53.2433 43.5444 52.0363 43.5288C51.7399 43.5249 51.6241 43.5853 51.6398 43.9066C51.6673 44.5044 51.6614 45.1021 51.6398 45.6999C51.63 45.9764 51.6947 46.0718 51.997 46.066C53.0411 46.0446 54.0853 46.0679 55.1294 46.0524C55.414 46.0485 55.5121 46.1166 55.5062 46.4106C55.5003 46.6852 55.4454 46.7903 55.1392 46.7825C54.0951 46.7611 53.0509 46.7825 52.0068 46.7689C51.7242 46.765 51.63 46.8332 51.6378 47.1272C51.6594 47.9002 51.628 48.6732 51.6535 49.4463C51.6633 49.7617 51.5986 49.8766 51.2551 49.8591C50.9568 49.8454 50.8214 49.8221 50.8312 49.4638C50.8606 48.4143 50.841 47.3628 50.841 46.3133H50.8449Z" fill="#1C1C1E"/>
<path d="M15.429 32.4885C15.429 33.0279 15.4172 33.5692 15.4349 34.1085C15.4427 34.3656 15.3819 34.4727 15.0973 34.4629C14.4359 34.4434 13.7745 34.4493 13.1111 34.4629C12.8756 34.4688 12.7755 34.422 12.7794 34.1572C12.7951 33.0337 12.7892 31.9102 12.7814 30.7867C12.7814 30.5783 12.8108 30.4712 13.064 30.4771C13.7548 30.4946 14.4457 30.4927 15.1385 30.4771C15.3779 30.4712 15.4368 30.5589 15.4329 30.7808C15.4192 31.3494 15.429 31.918 15.429 32.4885Z" fill="#1C1C1E"/>
</svg>
