<svg width="155" height="68" viewBox="0 0 155 68" fill="none" xmlns="http://www.w3.org/2000/svg">
<path d="M114.679 0.00799561C114.671 0.166884 114.655 0.323122 114.655 0.48201C114.655 9.31355 114.669 18.1424 114.65 26.974C114.642 30.488 115.439 33.7638 117.347 36.7615C122.715 45.1879 133.848 47.9207 142.457 42.7092C148.146 39.2666 151.247 34.1451 151.331 27.4692C151.392 22.6284 151.341 17.7849 151.347 12.9441C151.347 12.7588 151.288 12.5602 151.433 12.3165C152.189 13.7995 152.916 15.2454 153.662 16.6807C154.098 17.5201 154.453 18.4019 155 19.1831V28.7111C154.887 29.4897 154.782 30.2709 154.658 31.0494C153.175 40.2173 145.187 47.7195 135.821 48.7443C129.791 49.4037 124.269 48.1432 119.479 44.3696C113.982 40.0372 111.029 34.4152 110.999 27.4374C110.959 18.4523 110.988 9.46449 110.991 0.476713C110.991 0.323121 111.026 0.166881 111.048 0.013289H114.679V0.00799561Z" fill="white"/>
<path d="M38.6362 0.00801386C38.7574 1.11493 38.6524 2.2245 38.6928 3.33142C38.7009 3.54857 38.6093 3.61213 38.4128 3.60153C38.2728 3.59359 38.1301 3.60153 37.9901 3.60153C32.6031 3.60153 27.2161 3.61213 21.829 3.58564C21.2529 3.583 21.1533 3.75513 21.1533 4.27681C21.1694 15.4678 21.1587 26.6589 21.1802 37.8472C21.1802 38.4298 21.0294 38.5967 20.4506 38.5569C19.6672 38.5066 18.8757 38.5146 18.0923 38.5569C17.6212 38.5808 17.5269 38.4245 17.5323 37.9902C17.5539 35.6493 17.5431 33.3083 17.5431 30.9674C17.5431 22.059 17.5377 13.1507 17.5565 4.24238C17.5565 3.7154 17.4354 3.58564 16.897 3.58829C11.4911 3.60948 6.08251 3.60153 0.676629 3.60153C0.455871 3.60153 0.23242 3.58829 0.0116624 3.583C0.0116624 2.53169 0.0305053 1.47773 0.000891435 0.42642C-0.00987725 0.0689215 0.0735802 -0.00257837 0.434331 6.97697e-05C5.35831 0.0159586 10.2823 0.0106605 15.2063 0.0106605H38.6362V0.00801386Z" fill="white"/>
<path d="M60.9705 34.3014H61.7109C66.1099 34.3014 70.5089 34.3067 74.9106 34.2908C75.3333 34.2908 75.5487 34.41 75.729 34.7939C76.2082 35.8108 76.7467 36.8039 77.2986 37.879C77.0024 37.879 76.7897 37.879 76.5744 37.879C70.9639 37.879 65.3534 37.8843 59.7429 37.8684C59.2906 37.8684 59.0349 37.9717 58.8141 38.4007C56.9511 42.0022 55.0532 45.5851 53.1686 49.176C53.0556 49.3905 52.9748 49.5864 52.6571 49.5811C51.4268 49.5652 50.1965 49.5758 48.8558 49.5758C57.5138 33.0382 66.1341 16.5721 74.7949 0.0265503C83.4583 16.5589 92.0813 33.017 100.755 49.5732C99.3932 49.5732 98.1171 49.5732 96.8384 49.5732C96.5638 49.5732 96.5368 49.3428 96.448 49.1786C95.0911 46.6126 93.737 44.0465 92.3909 41.4752C89.3191 35.6122 86.25 29.7492 83.181 23.8863C80.5346 18.831 77.8882 13.7783 75.2418 8.72303C75.1045 8.46086 74.9645 8.20135 74.7895 7.86768C70.1697 16.7019 65.5876 25.4619 60.9652 34.2987L60.9705 34.3014Z" fill="white"/>
<path d="M96.9433 63.4415C98.0713 61.7811 99.1428 60.2002 100.217 58.6193C100.451 58.2724 101.103 58.079 101.472 58.2247C101.665 58.3015 101.609 58.4471 101.609 58.5716C101.612 61.5269 101.603 64.4822 101.62 67.4376C101.622 67.9884 101.243 67.7527 100.998 67.7924C100.677 67.8454 100.5 67.7871 100.502 67.374C100.527 65.1337 100.516 62.8907 100.51 60.6504C100.51 60.5047 100.575 60.3432 100.427 60.1578C99.2612 61.8394 98.1117 63.4971 96.9244 65.2131C95.748 63.5157 94.6038 61.8685 93.4569 60.2134C93.2658 60.3352 93.3546 60.5074 93.3546 60.6451C93.3465 62.8669 93.3358 65.0887 93.3627 67.3104C93.3681 67.7712 93.1823 67.803 92.8027 67.8109C92.3989 67.8189 92.2589 67.7421 92.2643 67.3051C92.2885 64.4875 92.2724 61.6726 92.2858 58.8549C92.2858 58.6484 92.1189 58.2856 92.4339 58.2512C92.8135 58.2088 93.2765 58.0287 93.5835 58.4921C94.3669 59.6679 95.1664 60.8357 95.9606 62.0062C96.2729 62.467 96.5879 62.9225 96.946 63.4442L96.9433 63.4415Z" fill="white"/>
<path d="M63.38 63.9234C63.7192 63.8069 64.0019 63.7275 64.2711 63.6136C65.0734 63.2799 65.6603 62.7371 65.8864 61.8897C66.4114 59.9406 65.1191 58.3279 62.9035 58.2352C61.4955 58.177 60.0821 58.2247 58.6714 58.2088C58.3672 58.2061 58.2541 58.2829 58.2541 58.6033C58.2676 61.5375 58.273 64.4716 58.2514 67.4057C58.2487 67.9327 58.5799 67.7791 58.8464 67.7924C59.1183 67.8056 59.3929 67.8718 59.3741 67.4031C59.3337 66.4524 59.3848 65.5017 59.3525 64.5511C59.3391 64.1432 59.4844 64.0479 59.8667 64.0664C60.4913 64.0929 61.1186 64.0956 61.7405 64.0664C62.0689 64.0506 62.2466 64.1777 62.4297 64.4239C63.1027 65.3375 63.8 66.2353 64.4865 67.1409C65.0384 67.8692 65.3103 67.9566 66.2552 67.6944C65.3022 66.4418 64.3519 65.1972 63.3827 63.9234H63.38ZM60.3729 63.1052C59.3633 63.129 59.3606 63.1105 59.3633 62.1227V61.172C59.3633 60.6371 59.3633 60.1022 59.3633 59.5673C59.3633 59.3819 59.3525 59.1992 59.6271 59.2071C60.8117 59.2442 62.007 59.1038 63.1835 59.2918C64.2388 59.4613 64.8365 60.0836 64.8876 60.9972C64.9388 61.9267 64.3815 62.6656 63.3773 62.9569C62.392 63.2429 61.377 63.0813 60.3729 63.1025V63.1052Z" fill="white"/>
<path d="M105.755 62.9463C105.755 61.5375 105.766 60.1287 105.747 58.7199C105.741 58.3597 105.803 58.1982 106.231 58.2035C108.269 58.2273 110.307 58.2273 112.343 58.2035C112.771 58.1982 112.824 58.3571 112.841 58.7172C112.859 59.133 112.695 59.2045 112.318 59.1992C110.684 59.1807 109.05 59.2045 107.416 59.1807C107.015 59.1754 106.845 59.2442 106.869 59.6865C106.91 60.4385 106.912 61.1959 106.869 61.948C106.842 62.4193 107.02 62.5041 107.454 62.4961C108.845 62.4696 110.237 62.4961 111.629 62.4829C111.984 62.4802 112.227 62.467 112.216 62.9595C112.205 63.3991 112.054 63.4706 111.656 63.4653C110.245 63.4442 108.832 63.4706 107.419 63.4495C107.017 63.4442 106.848 63.5104 106.867 63.9553C106.904 64.7656 106.894 65.5812 106.869 66.3942C106.859 66.7358 106.972 66.8285 107.314 66.8258C109.007 66.8099 110.703 66.8338 112.396 66.8073C112.811 66.802 112.894 66.9371 112.894 67.3078C112.894 67.6785 112.814 67.8109 112.402 67.8056C110.345 67.7818 108.285 67.7818 106.229 67.8056C105.801 67.8109 105.736 67.6573 105.741 67.2919C105.757 65.8434 105.749 64.3948 105.749 62.9463H105.755Z" fill="white"/>
<path d="M47.5284 62.9701C47.5284 61.5613 47.5419 60.1552 47.5203 58.7464C47.515 58.3544 47.5903 58.1982 48.0372 58.2035C50.0537 58.2273 52.0701 58.222 54.0865 58.2088C54.4527 58.2088 54.6142 58.2618 54.6169 58.6855C54.6169 59.1171 54.4742 59.2071 54.065 59.2018C52.4309 59.1807 50.7994 59.2071 49.1653 59.186C48.7641 59.1807 48.5945 59.2548 48.6161 59.6944C48.6537 60.4465 48.6564 61.2038 48.6134 61.9533C48.5837 62.4299 48.7695 62.5067 49.2003 62.4988C50.6109 62.4749 52.0243 62.4988 53.435 62.4829C53.7931 62.4802 53.9789 62.5173 53.9735 62.9543C53.9681 63.3833 53.8335 63.4786 53.4189 63.4706C51.9867 63.4468 50.5544 63.4759 49.1249 63.4521C48.7264 63.4442 48.6026 63.5554 48.6161 63.9473C48.643 64.7206 48.6484 65.4938 48.6161 66.2671C48.5972 66.6987 48.7049 66.8444 49.176 66.8338C50.829 66.802 52.482 66.8391 54.135 66.8099C54.5738 66.802 54.6519 66.945 54.6627 67.3422C54.6761 67.7739 54.4904 67.8083 54.135 67.8083C52.0997 67.795 50.0618 67.7924 48.0265 67.8109C47.6361 67.8136 47.515 67.7209 47.5203 67.321C47.5473 65.8751 47.5311 64.4266 47.5311 62.9781L47.5284 62.9701Z" fill="white"/>
<path d="M41.5841 58.3279C40.763 58.1452 39.9338 58.2564 39.25 58.2167C38.4882 58.2167 37.8609 58.2299 37.2363 58.2114C36.9375 58.2034 36.8136 58.267 36.8136 58.598C36.8271 61.5348 36.8352 64.4716 36.8109 67.4084C36.8082 67.9353 37.1367 67.7817 37.4032 67.795C37.6751 67.8082 37.9551 67.8771 37.9336 67.4084C37.8932 66.5768 37.9443 65.74 37.912 64.9085C37.8986 64.514 38.0197 64.4107 38.4155 64.4107C39.4223 64.4133 40.4319 64.4928 41.4334 64.31C43.0029 64.024 44.0906 62.8483 44.1175 61.3891C44.1498 59.7579 43.2668 58.7013 41.5895 58.3279H41.5841ZM41.1076 63.3514C40.1492 63.5077 39.18 63.4044 38.2135 63.4309C37.9066 63.4388 37.912 63.2614 37.9147 63.0495C37.9201 62.4563 37.9147 61.8632 37.9147 61.2673C37.9147 60.6953 37.9147 60.1207 37.9147 59.546C37.9147 59.3474 37.9309 59.1965 38.1974 59.2044C39.18 59.2415 40.1708 59.1091 41.148 59.2839C42.408 59.509 43.0191 60.1948 43.0056 61.3124C42.9949 62.369 42.276 63.1581 41.1103 63.3488L41.1076 63.3514Z" fill="white"/>
<path d="M81.2694 61.4316C81.2694 62.4034 81.2156 63.378 81.2829 64.3445C81.3664 65.4965 81.9129 66.4286 83.0894 66.7782C84.3062 67.1383 85.4989 67.0615 86.4411 66.0658C87.0469 65.4276 87.1572 64.6173 87.1626 63.7937C87.1761 62.0883 87.1815 60.3829 87.1545 58.6775C87.1492 58.2591 87.3026 58.1744 87.6714 58.2062C87.981 58.2326 88.2906 58.1188 88.2799 58.659C88.2422 60.4438 88.296 62.2287 88.2529 64.0135C88.2179 65.5044 87.701 66.8179 86.2554 67.5011C84.7477 68.2108 83.1997 68.1843 81.7513 67.2866C80.7149 66.6458 80.233 65.6209 80.1872 64.4716C80.1091 62.4908 80.1522 60.5047 80.136 58.5239C80.1307 58.0049 80.5156 58.2538 80.7391 58.222C80.9895 58.1876 81.2587 58.1452 81.2479 58.5742C81.221 59.5249 81.2398 60.4783 81.2398 61.4316H81.2694Z" fill="white"/>
<path d="M69.7416 62.9887C69.7416 61.5402 69.7497 60.0916 69.7335 58.6431C69.7308 58.3174 69.8089 58.2035 70.1616 58.2062C72.2184 58.222 74.2779 58.2273 76.3347 58.2062C76.7628 58.2009 76.7735 58.3968 76.7681 58.712C76.7628 59.0138 76.7789 59.2257 76.3401 59.2204C74.6871 59.1939 73.0314 59.223 71.3757 59.2019C70.9692 59.1966 70.8104 59.2786 70.8319 59.7156C70.8696 60.5286 70.8615 61.3416 70.8319 62.1545C70.8184 62.5306 70.9073 62.6603 71.3219 62.6524C72.7541 62.6232 74.1863 62.655 75.6186 62.6338C76.0089 62.6285 76.1436 62.7212 76.1355 63.1211C76.1274 63.4945 76.052 63.6375 75.632 63.6269C74.1998 63.5978 72.7676 63.6269 71.3353 63.6084C70.9477 63.6031 70.8184 63.6957 70.8292 64.0956C70.8588 65.1469 70.8157 66.1982 70.8507 67.2495C70.8642 67.6785 70.7754 67.8348 70.3042 67.8109C69.895 67.7924 69.7093 67.7606 69.7227 67.2734C69.7631 65.846 69.7362 64.416 69.7362 62.9887H69.7416Z" fill="white"/>
<path d="M21.1641 44.1843C21.1641 44.9178 21.1479 45.654 21.1721 46.3875C21.1829 46.7371 21.0995 46.8827 20.7091 46.8695C19.8018 46.843 18.8946 46.8509 17.9846 46.8695C17.6615 46.8774 17.5242 46.8139 17.5296 46.4537C17.5512 44.9257 17.5431 43.3978 17.5323 41.8698C17.5323 41.5864 17.5727 41.4408 17.92 41.4487C18.8676 41.4726 19.8153 41.4699 20.7656 41.4487C21.0941 41.4408 21.1748 41.56 21.1694 41.8618C21.1506 42.6351 21.1641 43.4084 21.1641 44.1843Z" fill="white"/>
</svg>
